<svg width="48" height="48" viewBox="0 0 48 48" fill="none" xmlns="http://www.w3.org/2000/svg">
<path d="M22.1695 0.0469847C18.6914 0.37511 16.0477 1.11573 13.1602 2.56886C9.35391 4.47198 5.82891 7.70636 3.51328 11.4189C1.83516 14.1001 0.616406 17.5595 0.119531 21.0282C-0.0398438 22.1345 -0.0398438 25.8282 0.119531 26.9345C0.513281 29.7001 1.24453 32.1189 2.38828 34.4345C3.67266 37.0595 4.93828 38.822 7.01953 40.9126C9.09141 42.9751 10.882 44.2595 13.4039 45.497C15.1664 46.3595 16.3008 46.7814 18.0914 47.2314C22.7789 48.4126 27.4852 48.1876 32.0602 46.5657C33.4664 46.0689 35.8852 44.8501 37.1227 44.0251C42.3727 40.5189 46.0477 35.1939 47.3883 29.1376C47.6977 27.7314 47.857 26.4095 47.9227 24.7782C48.0633 20.7845 47.2383 16.9782 45.457 13.397C44.2945 11.0532 42.9914 9.20636 41.1633 7.32198C39.157 5.24073 37.132 3.76886 34.4977 2.46573C31.7227 1.09698 29.1352 0.35636 26.0602 0.0751097C25.1039 -0.00926533 22.9383 -0.0280153 22.1695 0.0469847ZM27.2789 3.25323C33.1664 4.24698 38.1352 7.45323 41.4445 12.4126C43.1227 14.9157 44.2195 17.7845 44.7352 20.9345C44.9602 22.3689 44.9602 25.5939 44.7352 27.0282C43.7227 33.2907 40.2914 38.4845 34.9664 41.8407C32.6883 43.2751 29.932 44.2876 26.9977 44.7657C25.5539 44.9907 22.3383 44.9907 20.9039 44.7564C14.7445 43.7532 9.67266 40.4814 6.30703 35.3251C4.73203 32.9157 3.67266 30.1032 3.16641 27.0282C2.94141 25.5939 2.94141 22.3689 3.16641 20.9345C3.92578 16.2751 5.89453 12.3845 9.12891 9.16886C12.7102 5.59699 17.2102 3.49698 22.2633 3.03761C23.2758 2.94386 26.182 3.07511 27.2789 3.25323Z" fill="white"/>
<path d="M23.3414 10.8001C22.9945 10.9595 22.6852 11.2876 22.5539 11.6345C22.4883 11.8126 22.4508 13.6689 22.4508 17.1845V22.4814L17.0227 22.5001C11.6977 22.5282 11.5852 22.5282 11.332 22.7251C10.8352 23.0907 10.6852 23.3907 10.6852 23.9814C10.6852 24.572 10.8352 24.872 11.332 25.2376C11.5852 25.4345 11.6977 25.4345 17.0133 25.4626L22.4508 25.4814L22.4695 30.9189C22.4977 36.2345 22.4977 36.347 22.6945 36.6001C23.0602 37.097 23.3602 37.247 23.9508 37.247C24.5414 37.247 24.8414 37.097 25.207 36.6001C25.4039 36.347 25.4039 36.2345 25.432 30.9189L25.4508 25.4814L30.8883 25.4626C36.2039 25.4345 36.3164 25.4345 36.5695 25.2376C37.0664 24.872 37.2164 24.572 37.2164 23.9814C37.2164 23.3907 37.0664 23.0907 36.5695 22.7251C36.3164 22.5282 36.2039 22.5282 30.8883 22.5001L25.4508 22.4814L25.432 17.0439C25.4039 11.7282 25.4039 11.6157 25.207 11.3626C25.1039 11.222 24.907 11.0157 24.7758 10.922C24.457 10.6876 23.7164 10.622 23.3414 10.8001Z" fill="white"/>
</svg>
