<svg width="6" height="10" viewBox="0 0 6 10" fill="none" xmlns="http://www.w3.org/2000/svg">
<path d="M0.355332 0.0273504C0.265488 0.0605536 0.161973 0.15821 0.119004 0.248054C0.072129 0.347663 0.0779884 0.509772 0.132676 0.609382C0.163926 0.667975 0.870957 1.32422 2.53111 2.8379C3.82604 4.01758 4.88463 4.99024 4.88463 5.00001C4.88463 5.00977 3.82604 5.98243 2.53111 7.16212C0.870957 8.67579 0.163926 9.33204 0.132676 9.39063C0.0779884 9.49024 0.072129 9.65235 0.119004 9.75391C0.165879 9.85157 0.286973 9.95508 0.386582 9.98048C0.480332 10.0059 0.611192 9.99415 0.69127 9.95313C0.720567 9.93751 1.89049 8.88087 3.29283 7.60352C5.29674 5.77735 5.84947 5.26172 5.87877 5.20118C5.92564 5.09571 5.92564 4.9043 5.87877 4.79883C5.85143 4.73829 5.29283 4.21876 3.29283 2.39844C1.89049 1.11915 0.718613 0.0605536 0.687363 0.0449286C0.607285 0.00391293 0.445176 -0.0058527 0.355332 0.0273504Z" fill="white"/>
</svg>
