<svg width="22" height="25" viewBox="0 0 22 25" fill="none" xmlns="http://www.w3.org/2000/svg">
<path d="M15.4241 0.0389271C15.5097 0.0627091 15.6429 0.157837 15.719 0.243452C15.8997 0.452734 15.933 0.69531 15.9092 1.63708C15.8902 2.44091 15.8474 2.56457 15.524 2.74532C15.2101 2.92606 14.8295 2.81666 14.6345 2.49323C14.5584 2.36956 14.5394 2.25065 14.5394 1.85111V1.36596H11.8806H9.22651L9.20273 1.85587C9.17895 2.42664 9.1076 2.5836 8.81746 2.74532C8.50354 2.92606 8.12303 2.81666 7.92802 2.49323C7.8424 2.35529 7.83289 2.25065 7.83289 1.41353C7.83289 0.5764 7.8424 0.471759 7.92802 0.333824C8.1373 -0.00863671 7.88521 0.0103889 11.7807 0.00087595C13.8069 -0.0038805 15.3385 0.0103889 15.4241 0.0389271Z" fill="#FF0000"/>
<path d="M20.7177 4.21025C20.8081 4.25305 20.927 4.35294 20.9793 4.42428C21.0745 4.55746 21.0792 4.62405 21.0935 6.61222C21.1078 8.9381 21.103 8.97615 20.7796 9.17592C20.6369 9.26629 20.518 9.28532 20.1279 9.29959L19.6523 9.31861L19.0245 15.911C18.4299 22.1086 18.3871 22.5081 18.2872 22.6555C18.0684 22.979 18.3443 22.96 13.3596 22.96H8.85529L8.47478 23.2501C5.83974 25.243 2.01084 24.3346 0.550625 21.3666C-0.286501 19.659 -0.162834 17.6946 0.878817 16.1107C1.63984 14.9597 2.86223 14.1273 4.175 13.8562C4.34147 13.8229 4.47941 13.7754 4.47941 13.7516C4.47941 13.7278 4.44611 13.3663 4.41282 12.943C4.37477 12.5244 4.3605 12.1249 4.37477 12.0535C4.49843 11.5684 5.16433 11.4019 5.51155 11.7682C5.67326 11.9394 5.72083 12.1392 5.78742 12.9477C5.81596 13.314 5.85401 13.6469 5.86352 13.6897C5.87779 13.7421 5.98243 13.7849 6.21549 13.8229C6.39623 13.8515 6.71016 13.9276 6.91468 13.9942C7.11445 14.056 7.28568 14.1035 7.29044 14.0988C7.29995 14.094 7.25714 13.6517 7.20482 13.119L7.10494 12.1487L7.20958 11.9394C7.28568 11.7824 7.36178 11.7063 7.51399 11.6397C7.76608 11.5256 7.85169 11.5256 8.10378 11.6397C8.43673 11.7872 8.47478 11.9156 8.6365 13.5803L8.77443 15.0215L9.10262 15.364C10.1728 16.4913 10.7103 18.0466 10.5486 19.5401C10.482 20.1442 10.3203 20.753 10.092 21.2334L9.93024 21.5806H13.5166C15.4905 21.5806 17.1076 21.5758 17.1076 21.5663C17.1076 21.5568 17.3645 18.8552 17.6784 15.5638C17.9923 12.2723 18.2492 9.51838 18.2492 9.44228V9.3091L10.6675 9.29959C3.09054 9.28532 3.08103 9.28532 2.95261 9.18543C2.88126 9.13311 2.77662 9.02847 2.7243 8.95713C2.62917 8.8287 2.62441 8.77163 2.62441 6.72638C2.62441 4.70967 2.62917 4.6193 2.71954 4.46233C2.77186 4.37672 2.89077 4.26257 2.98114 4.215C3.13811 4.12938 3.45203 4.12463 11.8518 4.12463C20.0423 4.12463 20.5655 4.12938 20.7177 4.21025ZM3.9895 6.7026L4.00377 7.90596L11.8613 7.92023L19.7237 7.92975V6.71687V5.50398H11.8518H3.97999L3.9895 6.7026ZM4.5127 15.188C2.6149 15.578 1.25933 17.3331 1.37824 19.25C1.47337 20.6912 2.28195 21.904 3.57569 22.5366C4.21305 22.8458 4.57929 22.9314 5.288 22.9314C5.9967 22.9314 6.36294 22.8458 7.0003 22.5366C8.04195 22.0277 8.75541 21.1668 9.07884 20.0348C9.21678 19.5353 9.23105 18.5793 9.10262 18.1132C8.90285 17.3807 8.63174 16.886 8.15134 16.3676C7.21909 15.3687 5.83022 14.9169 4.5127 15.188Z" fill="#FF0000"/>
<path d="M7.29038 16.5912C7.48539 16.6482 7.73748 16.9289 7.74224 17.1001C7.76126 17.5044 7.7137 17.5757 6.9717 18.3225L6.263 19.0407L6.93365 19.7018C7.29989 20.0681 7.63284 20.4296 7.67565 20.5057C7.83261 20.8053 7.71846 21.2191 7.43783 21.3904C7.24757 21.5093 6.90036 21.514 6.73864 21.4094C6.67205 21.3666 6.32008 21.0336 5.95383 20.6722L5.28794 20.011L4.62204 20.6817C4.2558 21.0479 3.89907 21.3809 3.82773 21.4189C3.66125 21.5045 3.34733 21.5045 3.16659 21.4141C2.87645 21.2619 2.74327 20.8006 2.90499 20.4962C2.94304 20.4248 3.27598 20.0681 3.64223 19.7018L4.31288 19.0407L3.60418 18.3225C2.86218 17.5757 2.81461 17.5044 2.83364 17.1001C2.84315 16.9146 3.09524 16.6435 3.31879 16.5864C3.67076 16.4913 3.79443 16.5626 4.57448 17.3474L5.28794 18.0609L6.0014 17.3474C6.80999 16.5436 6.91463 16.4818 7.29038 16.5912Z" fill="#FF0000"/>
<path d="M12.2465 11.616C12.5557 11.8776 12.5414 11.6397 12.5414 15.8254C12.5414 19.9492 12.5509 19.7541 12.2846 20.0062C12.0991 20.1775 11.7185 20.2012 11.495 20.049C11.143 19.8112 11.162 20.0443 11.162 15.8349C11.162 11.7586 11.1525 11.8871 11.4189 11.6445C11.514 11.5541 11.6091 11.5208 11.8184 11.5066C12.0658 11.4875 12.1086 11.5018 12.2465 11.616Z" fill="#FF0000"/>
<path d="M16.0895 11.5969C16.1751 11.6207 16.3083 11.7158 16.3892 11.8062C16.5176 11.9584 16.5366 12.0107 16.5366 12.2628C16.5366 12.4245 16.3892 14.1416 16.2037 16.0822C15.9421 18.8647 15.8517 19.64 15.7899 19.7732C15.5283 20.2821 14.8243 20.2773 14.5722 19.7637C14.4866 19.5877 14.4914 19.5401 14.8433 15.8206C15.2286 11.8062 15.2191 11.8823 15.4902 11.6825C15.6424 11.5731 15.8993 11.5351 16.0895 11.5969Z" fill="#FF0000"/>
</svg>
