<svg width="25" height="25" viewBox="0 0 25 25" fill="none" xmlns="http://www.w3.org/2000/svg">
<path d="M11.808 0.00919341C8.71441 0.217179 5.83918 1.50149 3.69706 3.64374C2.6624 4.67847 1.9397 5.682 1.30538 6.97151C-0.192025 10.0029 -0.405197 13.3827 0.686659 16.5804C2.22566 21.0677 6.14074 24.2603 10.9241 24.9207C11.7144 25.0299 13.295 25.0247 14.1217 24.9155C19.7838 24.1563 24.1356 19.7938 24.9207 14.095C25.0143 13.4035 25.0299 11.7396 24.9415 11.0792C24.5723 8.20382 23.3505 5.6872 21.354 3.68534C19.4094 1.73027 16.8409 0.456362 14.1217 0.107987C13.5238 0.029992 12.3019 -0.0220044 11.808 0.00919341ZM14.4077 1.22071C18.4527 1.93826 21.7075 4.60047 23.1893 8.41181C24.1408 10.8504 24.198 13.601 23.3505 16.1385C21.9467 20.3398 18.2292 23.3556 13.8201 23.8703C9.06276 24.4267 4.44057 21.9361 2.29325 17.6568C0.676261 14.4382 0.655463 10.7204 2.24126 7.49147C3.05755 5.81719 4.1858 4.45488 5.678 3.33176C7.2222 2.16704 9.23954 1.3663 11.2361 1.12712C11.938 1.04392 13.6902 1.09592 14.4077 1.22071Z" fill="white"/>
<path d="M4.57055 10.3981C4.06622 10.5853 3.63987 10.9544 3.38511 11.4276C2.56881 12.9303 3.63467 14.745 5.33485 14.745C6.03156 14.745 6.53069 14.537 6.99343 14.043C7.80972 13.1799 7.82012 11.854 7.01423 10.996C6.53589 10.4813 6.05236 10.2733 5.34005 10.2785C5.00729 10.2785 4.80972 10.3097 4.57055 10.3981ZM5.75599 11.3912C6.21873 11.5576 6.53069 11.9996 6.53069 12.5091C6.53069 13.5282 5.34525 14.0794 4.60175 13.4087C4.31058 13.1435 4.1858 12.8783 4.1858 12.5143C4.1806 11.6772 4.9709 11.1156 5.75599 11.3912Z" fill="white"/>
<path d="M11.86 10.3409C11.2413 10.5489 10.7369 10.9856 10.4666 11.5576C10.3106 11.8904 10.3002 11.9424 10.3002 12.5091C10.3002 13.0759 10.3106 13.1279 10.4666 13.4607C10.5706 13.679 10.7421 13.9182 10.9189 14.1002C11.1009 14.277 11.3401 14.4486 11.5584 14.5526C11.8912 14.7086 11.9432 14.719 12.5099 14.719C13.0766 14.719 13.1286 14.7086 13.4614 14.5526C13.9241 14.3342 14.3349 13.9234 14.5532 13.4607C14.7092 13.1279 14.7196 13.0759 14.7196 12.5091C14.7196 11.9424 14.7092 11.8904 14.5532 11.5576C14.3349 11.0948 13.9241 10.684 13.4614 10.4657C13.1494 10.3201 13.0454 10.2993 12.5879 10.2889C12.2603 10.2785 11.99 10.2993 11.86 10.3409ZM12.9778 11.4224C13.269 11.5524 13.425 11.698 13.5602 11.9528C13.8825 12.5819 13.6174 13.3203 12.9674 13.601C12.6451 13.7362 12.2811 13.7258 11.9588 13.5594C11.4077 13.2787 11.1685 12.5975 11.4233 12.0412C11.5636 11.7292 11.704 11.5836 12.016 11.438C12.3383 11.2872 12.6659 11.282 12.9778 11.4224Z" fill="white"/>
<path d="M18.9207 10.3773C18.7699 10.4293 18.5463 10.5437 18.4267 10.6268C17.2517 11.438 17.0645 13.0239 18.0264 14.043C18.4891 14.537 18.9883 14.745 19.685 14.745C21.6555 14.745 22.659 12.3479 21.276 10.9492C20.99 10.6528 20.7612 10.5073 20.3921 10.3773C19.9917 10.2421 19.3054 10.2421 18.9207 10.3773ZM20.1841 11.4328C20.5845 11.6408 20.8392 12.0568 20.834 12.5143C20.8288 13.5334 19.6434 14.0794 18.8947 13.4035C18.6191 13.1539 18.4891 12.8731 18.4891 12.5091C18.4891 12.0152 18.7959 11.5628 19.243 11.3912C19.4926 11.2976 19.9657 11.3184 20.1841 11.4328Z" fill="white"/>
</svg>
