<svg width="22" height="22" viewBox="0 0 22 22" fill="none" xmlns="http://www.w3.org/2000/svg">
<path d="M10.2942 0.058219C10.1222 0.152527 4.94084 5.33388 4.85208 5.50031C4.8077 5.58352 4.77441 5.77213 4.77441 5.91637C4.77441 6.41564 5.12391 6.76513 5.62318 6.76513C5.76742 6.76513 5.95603 6.73185 6.03924 6.68747C6.12246 6.64309 6.98787 5.80542 7.96423 4.82906L9.73943 3.04832L9.76716 9.22822C9.7949 15.3637 9.7949 15.4137 9.9114 15.5635C10.1278 15.8575 10.3053 15.9462 10.6548 15.9462C11.0043 15.9462 11.1818 15.8575 11.3981 15.5635C11.5146 15.4137 11.5146 15.3637 11.5424 9.22822L11.5701 3.04832L13.3453 4.82906C14.3217 5.80542 15.1871 6.64309 15.2703 6.68747C15.3535 6.73185 15.5421 6.76513 15.6863 6.76513C16.1856 6.76513 16.5351 6.41564 16.5351 5.91637C16.5351 5.77213 16.5018 5.58352 16.4574 5.50031C16.3576 5.31724 11.1762 0.146979 11.0043 0.058219C10.8489 -0.0194454 10.4384 -0.0194454 10.2942 0.058219Z" fill="white"/>
<path d="M0.530703 12.5013C0.325446 12.5956 0.142378 12.7897 0.0647134 12.995C-0.0351416 13.2557 -0.0129516 18.0155 0.0869033 18.4981C0.336541 19.6964 1.324 20.767 2.5278 21.1498L2.91613 21.2719H10.6549H18.3937L18.782 21.1498C19.8859 20.8003 20.8068 19.8794 21.1563 18.7755C21.2728 18.3983 21.2784 18.3206 21.2784 15.6855C21.2784 13.0449 21.2784 12.9839 21.1619 12.8341C20.9455 12.5401 20.768 12.4513 20.4185 12.4513C20.069 12.4513 19.8915 12.5401 19.6751 12.8341C19.5642 12.9839 19.5586 13.0671 19.5309 15.6023L19.5032 18.2207L19.3534 18.5037C19.1315 18.9253 18.965 19.0972 18.5767 19.308L18.2272 19.4967H10.6549H3.08255L2.79963 19.3469C2.37802 19.125 2.20605 18.9585 1.99524 18.5702L1.80663 18.2207L1.77889 15.6023C1.75115 13.0671 1.74561 12.9839 1.63466 12.8341C1.57363 12.7509 1.45714 12.6289 1.37947 12.5734C1.19086 12.4347 0.752603 12.3959 0.530703 12.5013Z" fill="white"/>
</svg>
