<svg width="53" height="47" viewBox="0 0 53 47" fill="none" xmlns="http://www.w3.org/2000/svg">
<g filter="url(#filter0_d_343_700)">
<path d="M25.0999 0.0561523C24.5968 0.217871 23.932 0.63115 20.7245 2.76943L17.3734 5.00654V3.71279C17.3734 2.47295 17.3644 2.40107 17.1218 1.94287C16.9421 1.59248 16.7535 1.38584 16.43 1.18818L15.9988 0.918652L14.3277 0.882715C12.2972 0.846777 11.8929 0.918652 11.3179 1.42178C10.6531 2.00576 10.6351 2.14053 10.6351 6.10263V9.49873L7.93978 11.2956C6.45736 12.2839 5.08275 13.2632 4.88509 13.4608C4.31009 14.0538 4.04955 14.7007 4.00462 15.5991C3.96869 16.4706 4.13939 17.0995 4.61556 17.7554C5.18158 18.528 6.34056 19.112 7.31087 19.112C7.87689 19.112 8.78431 18.8245 9.28744 18.4831L9.69173 18.2136L9.78158 34.6101L9.98822 35.1222C10.4464 36.2632 11.237 37.1616 12.2613 37.7097C13.3304 38.2757 12.6206 38.2487 25.9984 38.2487C39.3761 38.2487 38.6663 38.2757 39.7355 37.7097C40.7597 37.1616 41.5503 36.2632 42.0085 35.1222L42.2152 34.6101L42.305 18.2226L42.7542 18.5011C43.7156 19.103 44.6859 19.2468 45.6831 18.9323C47.8574 18.2585 48.7109 15.653 47.3722 13.7753C47.0308 13.2901 46.4468 12.8948 37.4624 6.89326C32.2066 3.39834 27.6964 0.415527 27.4269 0.280762C27.0226 0.0741211 26.807 0.0291992 26.1331 0.00224609C25.6929 -0.00673828 25.2257 0.0112305 25.0999 0.0561523ZM36.007 8.24092C41.2179 11.7089 45.5843 14.6558 45.7101 14.7905C45.9706 15.069 46.1234 15.4284 46.1234 15.7968C46.1234 16.1472 45.8269 16.7132 45.5484 16.8929C45.2788 17.0726 44.7308 17.1983 44.3804 17.1534C44.2277 17.1354 40.6249 14.7905 35.2163 11.1788C27.6785 6.14756 26.2679 5.24013 25.9984 5.24013C25.7288 5.24013 24.3273 6.14756 16.7894 11.1698C11.0124 15.0241 7.77806 17.1265 7.58041 17.1624C6.96048 17.2792 6.34056 16.9737 6.05306 16.4167C5.76556 15.8507 5.83744 15.2667 6.2597 14.8085C6.45736 14.5929 25.1359 2.0956 25.4952 1.94287C25.5941 1.89795 25.8816 1.87998 26.1152 1.89795C26.5105 1.9249 27.2023 2.36513 36.007 8.24092ZM15.4867 6.26435L14.166 7.14482C13.4292 7.62998 12.7824 8.06123 12.7285 8.09717C12.6386 8.15107 12.6117 7.60302 12.6117 5.50967V2.85029H15.4867V6.26435ZM33.2128 12.1222L40.3734 16.9108L40.3554 25.5808L40.3285 34.2507L40.023 34.8167C39.6816 35.4456 39.4031 35.7151 38.7202 36.0745L38.262 36.3171L31.7574 36.371L31.7035 23.1999L31.4878 22.7237C31.2273 22.1397 30.4816 21.439 29.8886 21.2144C29.5113 21.0706 29.08 21.0436 26.3128 21.0167C22.9347 20.9808 22.3687 21.0347 21.7308 21.403C21.2187 21.6995 20.7425 22.2296 20.4999 22.7507L20.2933 23.1999L20.2394 36.371L13.7347 36.3171L13.2765 36.0745C12.5937 35.7151 12.3152 35.4456 11.9738 34.8167L11.6683 34.2507L11.6503 25.5808L11.6234 16.9108L18.7929 12.1312C22.7281 9.50771 25.9714 7.35146 25.9984 7.35146C26.0253 7.34248 29.2687 9.49873 33.2128 12.1222ZM29.4035 23.119C29.8617 23.4425 29.8617 23.3976 29.8617 30.1179V36.362H22.1351V30.1179C22.1351 23.3976 22.1351 23.4425 22.5933 23.119C22.782 22.9933 23.1863 22.9753 25.9984 22.9753C28.8105 22.9753 29.2148 22.9933 29.4035 23.119Z" fill="white"/>
</g>
<defs>
<filter id="filter0_d_343_700" x="0" y="0" width="52.0127" height="46.249" filterUnits="userSpaceOnUse" color-interpolation-filters="sRGB">
<feFlood flood-opacity="0" result="BackgroundImageFix"/>
<feColorMatrix in="SourceAlpha" type="matrix" values="0 0 0 0 0 0 0 0 0 0 0 0 0 0 0 0 0 0 127 0" result="hardAlpha"/>
<feOffset dy="4"/>
<feGaussianBlur stdDeviation="2"/>
<feComposite in2="hardAlpha" operator="out"/>
<feColorMatrix type="matrix" values="0 0 0 0 0 0 0 0 0 0 0 0 0 0 0 0 0 0 0.25 0"/>
<feBlend mode="normal" in2="BackgroundImageFix" result="effect1_dropShadow_343_700"/>
<feBlend mode="normal" in="SourceGraphic" in2="effect1_dropShadow_343_700" result="shape"/>
</filter>
</defs>
</svg>
