<svg width="21" height="19" viewBox="0 0 21 19" fill="none" xmlns="http://www.w3.org/2000/svg">
<path d="M4.60052 0.0739126C4.30807 0.166054 4.09976 0.302263 3.8674 0.55465C3.63505 0.803031 3.49884 1.08346 3.43875 1.44001C3.4067 1.62429 3.39869 3.28284 3.4067 6.98852L3.41872 12.2766L3.50685 12.509C3.67911 12.9697 4.0637 13.3663 4.50838 13.5426L4.74073 13.6387L11.8115 13.6507C16.9794 13.6587 18.9464 13.6507 19.1227 13.6187C19.7837 13.4905 20.3365 12.9336 20.4647 12.2766C20.4968 12.1044 20.5048 10.558 20.4968 6.66803L20.4847 1.29979L20.3966 1.08747C20.2684 0.766975 20.008 0.454496 19.7316 0.27422C19.2709 -0.0222349 19.8838 -0.00220394 11.9557 0.00180244C5.2455 0.00180244 4.80884 0.00580883 4.60052 0.0739126ZM19.1788 0.943246C19.4432 1.07545 19.6074 1.31582 19.6435 1.61628C19.6555 1.72845 19.6635 3.54724 19.6555 5.66248L19.6435 9.50037L17.7486 7.29298C16.711 6.07912 15.7816 5.02951 15.6894 4.96542C15.2648 4.65694 14.6438 4.66095 14.1992 4.97743C14.111 5.04153 12.8852 6.49576 10.6618 9.16786C10.6538 9.17988 10.3373 8.87942 9.95669 8.49883C9.14746 7.6936 9.0473 7.63351 8.54654 7.63351C7.96165 7.6295 7.9937 7.60947 6.01468 9.5845L4.28003 11.3111V6.39561C4.28003 1.6323 4.28404 1.47206 4.35615 1.32784C4.40021 1.24771 4.48434 1.13153 4.54844 1.07144C4.80483 0.827068 4.28003 0.843093 11.9557 0.839087H18.9664L19.1788 0.943246ZM15.2087 5.67851C15.2608 5.71456 16.2823 6.89237 17.4802 8.29051L19.6595 10.8344L19.6635 11.4073C19.6635 11.7238 19.6435 12.0643 19.6154 12.1685C19.5513 12.4249 19.2709 12.7053 19.0145 12.7694C18.7701 12.8335 5.13734 12.8375 4.917 12.7774C4.83688 12.7534 4.71269 12.6973 4.64058 12.6452C4.35615 12.4529 4.23997 12.5971 6.38324 10.4538C7.67321 9.16385 8.37828 8.48682 8.44639 8.47079C8.50648 8.45877 8.60663 8.46679 8.67073 8.49082C8.73483 8.51486 9.15547 8.90345 9.60816 9.35214C10.0608 9.80083 10.4815 10.1894 10.5456 10.2135C10.814 10.3136 10.802 10.3256 12.8171 7.90993C14.0549 6.42365 14.736 5.63845 14.8081 5.6104C14.9403 5.56233 15.0845 5.58637 15.2087 5.67851Z" fill="white"/>
<path d="M7.16423 2.63386C6.87179 2.73001 6.66347 2.87023 6.43112 3.11861C5.81017 3.78363 5.8342 4.80119 6.4872 5.4582C7.4727 6.44371 9.12723 5.90288 9.36759 4.52076C9.46374 3.97592 9.26344 3.41907 8.83078 3.01044C8.49426 2.69796 8.23787 2.5938 7.74512 2.57377C7.4727 2.56576 7.32848 2.57778 7.16423 2.63386ZM8.02555 3.47916C8.65851 3.7636 8.69457 4.66498 8.08564 5.0015C7.71307 5.20982 7.24035 5.09364 6.98796 4.73308C6.82772 4.50473 6.79567 4.13617 6.91585 3.89981C7.13619 3.47115 7.61292 3.29087 8.02555 3.47916Z" fill="white"/>
<path d="M1.90804 6.628C1.84394 6.66405 1.77584 6.75619 1.73978 6.85635C1.58755 7.26097 0.0251669 13.178 0.00513636 13.4184C-0.0509492 14.0914 0.357674 14.7925 0.966603 15.0729C1.08278 15.125 2.20048 15.4455 3.4584 15.782C4.71632 16.1145 7.72491 16.9238 10.1486 17.5728C12.5723 18.2218 14.6675 18.7666 14.7997 18.7746C15.4327 18.8307 16.1337 18.4341 16.4182 17.8652C16.5464 17.6088 17.2194 15.1451 17.2194 14.9327C17.2194 14.7525 17.0672 14.5562 16.9029 14.5201C16.7587 14.4881 16.5183 14.5842 16.4582 14.7004C16.4222 14.7685 15.6971 17.3845 15.6971 17.4486C15.6971 17.4606 15.621 17.5487 15.5328 17.6449C15.4086 17.7811 15.3125 17.8412 15.1482 17.8893C14.8999 17.9614 14.9319 17.9654 13.8743 17.6809C13.4336 17.5648 10.4411 16.7635 7.22415 15.9022C0.902505 14.2116 1.15489 14.2918 0.966603 13.9632C0.782322 13.6307 0.762291 13.7389 1.69572 10.2616C2.16844 8.49486 2.55703 7.00057 2.55703 6.94448C2.55703 6.88038 2.50495 6.78824 2.42082 6.70411C2.26859 6.55188 2.09633 6.52784 1.90804 6.628Z" fill="white"/>
</svg>
