<svg width="40" height="40" viewBox="0 0 40 40" fill="none" xmlns="http://www.w3.org/2000/svg">
<g clip-path="url(#clip0_1137_314)">
<path d="M17.3672 0.140621C16.6094 0.406246 16.0312 1.00781 15.8203 1.75C15.7578 1.96875 15.6328 2.58593 15.5469 3.125C15.4609 3.66406 15.3516 4.28125 15.3047 4.50781L15.2266 4.90625L14.6641 5.11718C14.3516 5.22656 13.7422 5.48437 13.3047 5.67968L12.5078 6.03906L11.3125 5.17968C10.6562 4.70312 10 4.25781 9.85938 4.1875C9.25 3.875 8.29688 3.89843 7.61719 4.23437C7.4375 4.32812 6.64062 5.05468 5.77344 5.92968C3.96875 7.74218 3.86719 7.89843 3.875 8.90625C3.875 9.72656 3.95312 9.89843 5.11719 11.5156L5.94531 12.6719L5.5625 13.5469C5.34375 14.0234 5.10938 14.6094 5.03906 14.8437C4.96094 15.0781 4.86719 15.3125 4.8125 15.3594C4.76562 15.4062 4.0625 15.5547 3.24219 15.6875C1.57812 15.9687 1.13281 16.1328 0.664062 16.6562C0.5 16.8281 0.296875 17.1328 0.203125 17.3359C0.046875 17.6797 0.0390625 17.8125 0.0390625 20.0781V22.4609L0.257812 22.9062C0.492188 23.3906 0.914062 23.8125 1.40625 24.0625C1.60156 24.1641 2.32031 24.3281 3.30469 24.4922C4.17188 24.6406 4.89062 24.7656 4.89062 24.7656C4.89844 24.7656 4.98438 24.9844 5.07812 25.25C5.17969 25.5234 5.42969 26.1328 5.64844 26.6172L6.03125 27.4922L5.125 28.7656C4.09375 30.2187 3.95312 30.5391 4 31.3516C4.04688 32.2656 4.20312 32.4922 5.89062 34.1953C7.67188 35.9844 7.91406 36.1328 8.94531 36.125C9.71875 36.125 9.85938 36.0547 11.4688 34.9062L12.6641 34.0469L13.4609 34.3984C13.8984 34.5937 14.4844 34.8281 14.7656 34.9297C15.0469 35.0234 15.2812 35.1094 15.2969 35.1172C15.3047 35.125 15.4375 35.8437 15.5859 36.7031C15.75 37.6797 15.9141 38.3984 16.0156 38.5937C16.2656 39.0859 16.6875 39.5078 17.1719 39.7422L17.6172 39.9609H20H22.3828L22.8281 39.7422C23.3359 39.4922 23.7812 39.0391 24 38.5469C24.0781 38.3594 24.2656 37.5156 24.4141 36.6719C24.5547 35.8281 24.6875 35.1328 24.7031 35.125C24.7188 35.1094 25.0078 35.0078 25.3516 34.8828C25.6953 34.7578 26.2969 34.5156 26.6875 34.3281L27.4062 34L28.6016 34.8594C30.2656 36.0469 30.2812 36.0547 31.1328 36.0547C32.1719 36.0547 32.375 35.9219 34.1484 34.1484C35.8203 32.4844 36.0156 32.1875 36.0781 31.2891C36.125 30.5156 35.9453 30.1172 34.8906 28.6328L34.0078 27.3906L34.3281 26.6797C34.5078 26.2969 34.7578 25.6875 34.8906 25.3281C35.0547 24.8516 35.1562 24.6719 35.2734 24.6484C35.3594 24.625 36.0625 24.5078 36.8281 24.375C38.4062 24.1172 38.875 23.9375 39.3359 23.4219C39.5 23.25 39.7031 22.9453 39.7969 22.7422C39.9531 22.3984 39.9609 22.2656 39.9609 20V17.6172L39.7422 17.1719C39.5078 16.6953 39.0859 16.2656 38.6094 16.0234C38.4297 15.9297 37.7109 15.7656 36.8672 15.625C36.0781 15.4922 35.3594 15.3516 35.2734 15.3203C35.1641 15.2734 35.0312 15.0234 34.8516 14.5234C34.7109 14.1172 34.4688 13.5547 34.3281 13.2656C34.1797 12.9766 34.0625 12.6953 34.0625 12.6406C34.0625 12.5859 34.4453 12 34.9141 11.3516C35.3828 10.6953 35.8281 10.0234 35.9062 9.86718C36.1328 9.39843 36.1484 8.5 35.9297 7.92968C35.7734 7.50781 35.6094 7.3125 34.1875 5.89062C32.4297 4.13281 32.1953 3.96875 31.3125 3.92187C30.5312 3.875 30.1797 4.03125 28.7188 5.07812L27.4141 6L26.6953 5.66406C26.2969 5.47656 25.6953 5.22656 25.3516 5.10937C25.0078 4.99218 24.6953 4.86718 24.6562 4.83593C24.6172 4.80468 24.4688 4.09375 24.3281 3.26562C24.0312 1.57812 23.8594 1.125 23.3438 0.664059C22.6797 0.0624962 22.5859 0.0390587 20.0391 0.0234337C18.0234 -3.8147e-06 17.7266 0.0156212 17.3672 0.140621ZM21.8516 2.35937C21.8906 2.41406 22.0547 3.25 22.2188 4.21875C22.375 5.20312 22.5703 6.09375 22.6484 6.25C22.8125 6.57812 23.1719 6.77343 24.2578 7.10937C24.6875 7.25 25.5312 7.60156 26.1406 7.89843C26.8516 8.25 27.3359 8.4375 27.5078 8.4375C27.8516 8.4375 28.125 8.27343 29.7188 7.125C30.4375 6.60156 31.0938 6.17187 31.1641 6.17187C31.3359 6.17187 33.8281 8.67968 33.8281 8.85156C33.8281 8.92187 33.3516 9.65625 32.7734 10.4687C31.6953 11.9766 31.5625 12.2109 31.5625 12.5469C31.5625 12.6484 31.8047 13.2266 32.1016 13.8359C32.3984 14.4375 32.7891 15.3828 32.9688 15.9297C33.2812 16.9141 33.4141 17.1328 33.7969 17.3281C33.8906 17.375 34.7344 17.5391 35.6719 17.6953C36.6172 17.8516 37.4609 18.0078 37.5625 18.0469C37.7344 18.125 37.7344 18.125 37.7344 20C37.7344 21.875 37.7344 21.875 37.5625 21.9531C37.4609 21.9922 36.6172 22.1484 35.6875 22.2969C34.7578 22.4531 33.9141 22.6094 33.8047 22.6484C33.5312 22.75 33.2188 23.1562 33.1172 23.5391C32.9141 24.3203 32.6016 25.1094 32.1016 26.1328C31.7969 26.75 31.5625 27.3359 31.5625 27.4687C31.5625 27.8047 31.7188 28.0781 32.8359 29.6328C33.3828 30.3984 33.8281 31.0859 33.8281 31.1562C33.8281 31.3281 31.3281 33.8281 31.1562 33.8281C31.0781 33.8281 30.4453 33.4141 29.75 32.9141C28.0312 31.6797 27.8281 31.5625 27.5156 31.5625C27.3359 31.5625 26.8594 31.75 26.1406 32.1016C25.5312 32.4062 24.6016 32.7891 24.0703 32.9609C23.0703 33.2891 22.875 33.4062 22.6875 33.7578C22.6328 33.875 22.4531 34.7344 22.3047 35.6719C22.1484 36.6172 21.9922 37.4609 21.9531 37.5547C21.875 37.7344 21.875 37.7344 20 37.7344C18.125 37.7344 18.125 37.7344 18.0469 37.5547C18.0078 37.4609 17.8516 36.6172 17.7031 35.6875C17.5469 34.7578 17.3906 33.9141 17.3516 33.8047C17.25 33.5312 16.8438 33.2187 16.4609 33.1172C15.7031 32.9219 14.8984 32.6094 13.9297 32.1406C12.8359 31.6094 12.5234 31.5469 12.1016 31.7578C11.9766 31.8281 11.2344 32.3359 10.4531 32.8906C9.67969 33.4531 8.98438 33.9062 8.91406 33.9062C8.74219 33.9062 6.25 31.3984 6.25 31.2266C6.25 31.1484 6.74219 30.3984 7.33594 29.5625C8.14844 28.4297 8.4375 27.9609 8.47656 27.7266C8.52344 27.4375 8.47656 27.3047 7.97656 26.2812C7.66406 25.6641 7.27344 24.7266 7.10156 24.1953C6.625 22.7422 6.71875 22.7969 4.35938 22.3906C3.3125 22.2031 2.40625 22.0312 2.35938 22C2.23438 21.9297 2.22656 18.2344 2.34375 18.1641C2.39062 18.1328 3.22656 17.9766 4.20312 17.8125C5.17969 17.6484 6.07031 17.4766 6.17969 17.4375C6.46875 17.3281 6.78125 16.9219 6.875 16.5391C7.08594 15.7344 7.46875 14.7344 7.88281 13.9062C8.42188 12.8281 8.46875 12.6719 8.33594 12.2891C8.28125 12.125 7.75 11.3203 7.16406 10.4922C6.57812 9.66406 6.09375 8.94531 6.09375 8.89062C6.09375 8.82812 6.6875 8.19531 7.41406 7.46875C8.64062 6.25781 8.75 6.16406 8.90625 6.25C9 6.30468 9.69531 6.78125 10.4531 7.32812C11.8672 8.34375 12.2812 8.55468 12.6406 8.46093C12.7578 8.4375 13.2969 8.1875 13.8359 7.91406C14.375 7.64843 15.2422 7.28125 15.7656 7.10937C16.2891 6.9375 16.7891 6.75781 16.8828 6.70312C17.2188 6.49218 17.3281 6.15625 17.6562 4.26562C17.8281 3.23437 17.9922 2.36718 18.0156 2.32812C18.0391 2.29687 18.8906 2.26562 19.9141 2.26562C21.3125 2.26562 21.7969 2.28906 21.8516 2.35937Z" fill="white"/>
<path d="M19.2423 11.414C16.0235 11.6953 13.1798 13.8125 11.9845 16.8203C11.2188 18.75 11.211 21.1484 11.9532 23.0859C12.8282 25.3437 14.6563 27.1719 16.9142 28.0469C18.3673 28.6015 20.1798 28.75 21.7345 28.4375C26.5782 27.4453 29.6017 22.5547 28.3204 17.7578C27.4142 14.3515 24.2735 11.6797 20.8985 11.4375C20.5548 11.414 20.2032 11.3906 20.1173 11.375C20.0313 11.3594 19.6407 11.3828 19.2423 11.414ZM21.4063 13.7969C23.7657 14.3047 25.6642 16.2109 26.2188 18.6328C26.3829 19.3515 26.3829 20.6484 26.211 21.4062C26.0313 22.2031 25.422 23.4375 24.8907 24.0703C22.9532 26.3828 19.5938 27.0234 16.961 25.5781C13.5313 23.6953 12.5938 19.2265 14.9767 16.1094C15.5704 15.3359 16.297 14.75 17.2267 14.2969C18.5938 13.6328 19.922 13.4765 21.4063 13.7969Z" fill="white"/>
</g>
<defs>
<clipPath id="clip0_1137_314">
<rect width="40" height="40" fill="white"/>
</clipPath>
</defs>
</svg>
