<svg width="23" height="22" viewBox="0 0 23 22" fill="none" xmlns="http://www.w3.org/2000/svg">
<path d="M18.7149 0.06954C18.5274 0.128115 18.34 0.251122 18.1584 0.432703C17.9124 0.684574 17.7543 1.01259 16.3367 4.18149L14.7845 7.64911H11.7269C8.73959 7.64911 8.65758 7.65497 8.54629 7.76626C8.40571 7.90684 8.39985 8.05328 8.51114 8.21143C8.59315 8.31687 8.7103 8.32272 11.5277 8.35201L14.4565 8.3813L13.8532 9.72852L13.244 11.0757L6.72461 11.0875L0.199374 11.105L0.0997973 11.228C-0.0290674 11.3803 -0.0290674 11.4565 0.0763673 11.6088C0.158372 11.7201 0.310667 11.7201 6.54303 11.7493L12.9277 11.7786L12.6114 12.4815L12.2892 13.1844L12.3537 13.7116C12.3888 13.9986 12.4298 14.2974 12.4474 14.3676L12.4708 14.5024H9.20233C6.10372 14.5024 5.92214 14.5082 5.83427 14.6078C5.70541 14.7484 5.71127 14.93 5.84013 15.0471C5.93971 15.135 6.26187 15.1467 9.23747 15.1467C11.0474 15.1467 12.5294 15.1525 12.5294 15.1584C12.7402 17.0152 12.8105 17.2554 13.1268 17.1792C13.1971 17.1558 13.9527 16.6579 14.8021 16.0722L16.3426 15.0002L18.6446 9.87496C19.9098 7.05751 20.9876 4.65594 21.0403 4.54465C21.8545 2.77569 21.9775 2.46525 21.9834 2.08451C21.9892 1.61005 21.8018 1.20589 21.4562 0.936445C21.1106 0.678715 19.6111 0.0343933 19.2772 0.00510597C19.119 -0.0124664 18.8848 0.0168228 18.7149 0.06954ZM20.1265 1.00673C20.9817 1.38747 21.0579 1.43433 21.2043 1.65691C21.3918 1.93222 21.3449 2.21337 20.9817 3.02756C20.8001 3.44345 20.6361 3.78318 20.6127 3.78318C20.5717 3.78318 18.0647 2.6644 17.9065 2.57654C17.8187 2.52968 17.848 2.43596 18.1701 1.73306C18.7266 0.526421 18.8906 0.46199 20.1265 1.00673ZM18.6153 3.6426C18.6387 3.66603 14.4741 12.9794 14.4038 13.0556C14.3803 13.079 14.2046 13.0614 14.0172 13.0146C13.8297 12.9677 13.5603 12.9033 13.4256 12.8798L13.1854 12.833L15.3585 7.99471L17.5317 3.15643L18.0588 3.39073C18.3517 3.51959 18.6036 3.63089 18.6153 3.6426ZM19.8102 4.17563C20.0914 4.29278 20.3198 4.41579 20.3198 4.45093C20.3198 4.49193 18.6446 8.24658 16.1493 13.7936L15.9853 14.1626L15.7627 13.9635C15.6397 13.8522 15.4171 13.6765 15.2707 13.5769L14.9954 13.3894L15.5987 12.0598C15.9267 11.3218 16.8815 9.20135 17.7133 7.33867C18.5509 5.48185 19.2479 3.9589 19.2655 3.9589C19.2831 3.9589 19.5232 4.05262 19.8102 4.17563ZM13.8415 13.653C14.3101 13.776 14.9134 14.1041 15.2824 14.4321L15.5928 14.7132L14.4858 15.4806C13.4607 16.1893 13.3729 16.242 13.3377 16.1249C13.3201 16.0546 13.244 15.5098 13.1796 14.9124C13.1093 14.3149 13.039 13.7702 13.0273 13.694C12.998 13.5769 13.0155 13.5652 13.2498 13.5652C13.3846 13.5652 13.654 13.6062 13.8415 13.653Z" fill="#A45BFF"/>
<path d="M0.111158 7.76624C-0.0411365 7.91854 -0.035279 8.03569 0.140446 8.20555L0.281025 8.35199H3.52021C7.06985 8.35199 7.0347 8.35199 7.06985 8.01811C7.10499 7.63738 7.19286 7.64909 3.52607 7.64909C0.304455 7.64909 0.228308 7.64909 0.111158 7.76624Z" fill="#A45BFF"/>
<path d="M0.0703693 14.6546C-0.017493 14.7952 -0.017493 14.8245 0.0586543 14.9651L0.146517 15.1174L2.21421 15.135C4.08275 15.1467 4.29947 15.1408 4.39905 15.0529C4.53377 14.9241 4.53377 14.7249 4.39905 14.6019C4.29947 14.5141 4.06517 14.5023 2.23178 14.5023H0.169946L0.0703693 14.6546Z" fill="#A45BFF"/>
<path d="M0.111353 18.0168C-0.0292261 18.1574 -0.0350836 18.2394 0.0879235 18.4151L0.175786 18.544H11.0063H21.8368L21.9246 18.4151C22.0476 18.2394 22.0418 18.1574 21.9012 18.0168C21.784 17.8997 21.7079 17.8997 11.0063 17.8997C0.304651 17.8997 0.228503 17.8997 0.111353 18.0168Z" fill="#A45BFF"/>
<path d="M0.140446 21.4435C-0.035279 21.6133 -0.0411365 21.7305 0.111158 21.8828C0.228308 21.9999 0.304455 21.9999 11.0061 21.9999C21.7077 21.9999 21.7838 21.9999 21.901 21.8828C22.0533 21.7305 22.0474 21.6133 21.8717 21.4435L21.7311 21.297H11.0061H0.281025L0.140446 21.4435Z" fill="#A45BFF"/>
</svg>
