<svg width="19" height="21" viewBox="0 0 19 21" fill="none" xmlns="http://www.w3.org/2000/svg">
<path d="M14.3992 0.0555859C14.2761 0.0843124 11.3295 0.933809 7.85357 1.93925C3.39679 3.23197 1.44746 3.81471 1.23816 3.91731C0.450221 4.29897 -0.0668639 5.22644 0.00700545 6.10466C0.019317 6.26471 0.179367 6.88439 0.392767 7.60667L0.753906 8.83783L0.774426 14.0087C0.799049 19.6679 0.778529 19.2657 1.05349 19.7951C1.36128 20.382 2.00968 20.8539 2.64989 20.9606C2.84277 20.9934 3.72509 21.0057 5.5431 20.9975L8.16136 20.9852L8.26806 20.8785C8.424 20.7185 8.42811 20.4722 8.27216 20.3204L8.16136 20.2055L5.4405 20.185L2.72375 20.1645L2.47342 20.0495C2.15742 19.9018 1.87836 19.6227 1.73062 19.3026L1.61571 19.0564L1.6034 16.0893L1.59109 13.1264H9.61822H17.6454L17.633 16.1304L17.6207 19.1385L17.5181 19.3437C17.395 19.5899 17.0954 19.9018 16.8779 20.0126C16.5537 20.1768 16.3732 20.185 13.7385 20.185C11.9451 20.185 11.1654 20.1973 11.1038 20.2301C10.8576 20.3573 10.7919 20.6651 10.9684 20.8539C11.0217 20.9114 11.112 20.9729 11.1654 20.9852C11.2146 20.9975 12.4786 21.0016 13.9683 20.9975C16.6604 20.9852 16.6768 20.9852 16.919 20.8908C17.2596 20.7636 17.5017 20.6118 17.7603 20.3738C18.0434 20.107 18.2281 19.8197 18.3676 19.4176L18.4825 19.0975V13.9143V8.72702L18.3471 8.60801L18.2158 8.489H11.1695C7.29544 8.489 4.13548 8.48079 4.14369 8.46848C4.156 8.46027 7.19285 7.57384 10.8945 6.50274C18.2322 4.37694 17.8054 4.51647 17.8054 4.20868C17.8054 3.99118 17.0831 1.5617 16.9231 1.2375C16.484 0.346958 15.3595 -0.178333 14.3992 0.0555859ZM15.3431 0.905083C15.7371 1.02409 16.1023 1.36471 16.2418 1.73816C16.4101 2.18138 16.8697 3.85986 16.8369 3.88858C16.7835 3.93783 15.3431 4.35232 15.2774 4.3359C15.2241 4.32359 12.3021 1.54118 12.3227 1.52066C12.3473 1.50014 14.5921 0.85994 14.707 0.843525C14.8629 0.823006 15.1584 0.851732 15.3431 0.905083ZM12.8356 3.20324C13.6277 3.96655 14.2761 4.60265 14.2802 4.61907C14.2802 4.656 12.2693 5.25106 12.1954 5.23465C12.1298 5.22233 9.22425 2.44403 9.24888 2.4194C9.28171 2.38657 11.3008 1.80383 11.35 1.81203C11.3747 1.81614 12.0436 2.44403 12.8356 3.20324ZM9.77007 4.1184C10.5703 4.88582 11.2023 5.52602 11.1818 5.53833C11.1572 5.55475 10.677 5.69838 10.1148 5.85843L9.09293 6.15391L8.90415 5.97334C8.80156 5.87485 8.14904 5.24696 7.45549 4.58624C6.76605 3.92141 6.19561 3.35919 6.19151 3.33867C6.1833 3.29352 8.14084 2.70257 8.25164 2.71488C8.28858 2.71898 8.96982 3.35098 9.77007 4.1184ZM7.09846 5.41932L8.14494 6.42887L7.11898 6.72434C6.55265 6.8885 6.06839 7.03213 6.04787 7.04034C6.00683 7.05265 3.10541 4.30307 3.08079 4.2292C3.07669 4.20868 3.54452 4.05684 4.12727 3.88448L5.18606 3.57669L5.61697 3.99528C5.85499 4.2251 6.51982 4.8653 7.09846 5.41932ZM3.58556 5.90357C4.49662 6.7818 5.03012 7.32351 4.99729 7.33582C4.96446 7.34813 4.16421 7.58205 3.21622 7.85701C2.0302 8.20173 1.48439 8.34126 1.46798 8.30843C1.45156 8.28381 1.30793 7.79955 1.14377 7.23732C0.893437 6.37552 0.844191 6.16622 0.848295 5.91999C0.852399 5.2921 1.20533 4.80374 1.83322 4.56161C1.96044 4.51237 2.07945 4.47543 2.09176 4.47954C2.10818 4.48364 2.7771 5.12384 3.58556 5.90357ZM5.15734 9.3426C5.15323 9.36312 4.76747 10.0362 4.30374 10.8405L3.46245 12.3015L2.53087 12.3056H1.5952V10.8077V9.30977H3.38447C4.3694 9.30977 5.16555 9.32619 5.15734 9.3426ZM8.36655 9.3385C8.36655 9.35081 7.98489 10.0279 7.51705 10.8364L6.66755 12.3056H5.5431H4.41864L4.4761 12.2112C4.50893 12.1619 4.9029 11.4889 5.34612 10.7133L6.15868 9.30977H7.26261C7.86998 9.30977 8.36655 9.32208 8.36655 9.3385ZM11.5511 9.42057C11.5142 9.48623 11.1284 10.1552 10.6934 10.9103L9.89318 12.2851L8.78104 12.2974C8.16956 12.3015 7.66889 12.2974 7.66889 12.2851C7.66889 12.2727 8.05055 11.5956 8.5225 10.7872L9.37199 9.30977H10.4923H11.6127L11.5511 9.42057ZM14.8014 9.3467C14.7973 9.36312 14.4115 10.0403 13.9478 10.8405L13.1065 12.3056H11.9861H10.8658L10.915 12.2112C10.9848 12.084 12.4663 9.51496 12.5361 9.40005C12.5935 9.30977 12.5976 9.30977 13.7057 9.30977C14.3171 9.30977 14.8096 9.32619 14.8014 9.3467ZM17.6413 10.8077V12.3056H15.8602H14.075L14.5921 11.4109C14.8753 10.9226 15.261 10.2496 15.4539 9.91304L15.8027 9.30977H16.722H17.6413V10.8077Z" fill="#A45BFF"/>
<path d="M8.33767 14.14C8.28842 14.1482 8.19814 14.2139 8.14068 14.2795L8.03809 14.4068V16.6228V18.8389L8.17762 18.9785C8.27201 19.0728 8.35408 19.118 8.43616 19.118C8.53876 19.118 10.0572 18.2685 12.0024 17.1276C12.4908 16.8403 12.5934 16.6269 12.3594 16.3684C12.2363 16.2371 8.67829 14.1646 8.52234 14.14C8.46899 14.1277 8.38691 14.1277 8.33767 14.14Z" fill="#A45BFF"/>
<path d="M9.45426 20.2342C9.04797 20.4558 9.24906 21.0714 9.69638 20.9893C9.89337 20.9524 10.0165 20.8006 10.0247 20.5954C10.0288 20.4517 10.0083 20.4025 9.89337 20.304C9.75384 20.1768 9.59789 20.1522 9.45426 20.2342Z" fill="#A45BFF"/>
</svg>
