<svg width="48" height="46" viewBox="0 0 48 46" fill="none" xmlns="http://www.w3.org/2000/svg">
<mask id="path-1-inside-1_641_482" fill="white">
<path d="M8.43248 0.147561C8.22036 0.230564 7.82379 0.498018 7.54711 0.747027C6.89231 1.33727 6.65252 1.90907 6.58797 2.96966L6.54185 3.78125H5.23225C3.68286 3.78125 3.12029 3.87347 2.36404 4.24237C1.66312 4.58361 1.10977 5.17385 0.731645 5.97621L0.436523 6.59412V43.2077L0.731645 43.8256C1.10055 44.6095 1.70924 45.2182 2.49315 45.5871L3.11106 45.8822L23.8618 45.9099C46.9551 45.9283 44.9907 45.9836 46.0144 45.3104C46.7983 44.7939 47.3055 44.0285 47.5084 43.0693C47.5914 42.6912 47.6099 38.0984 47.5914 24.5781L47.5638 6.59412L47.2686 5.97621C46.8905 5.17385 46.3372 4.58361 45.6362 4.24237C44.88 3.87347 44.3174 3.78125 42.768 3.78125H41.4584L41.4123 2.96966C41.3478 1.90907 41.108 1.33727 40.4532 0.747027C39.8076 0.156783 39.245 -0.0368902 38.3504 0.0184451C36.7365 0.119893 35.7128 1.30038 35.7128 3.04344V3.78125H31.7748L31.7194 3.01577C31.6364 1.91829 31.4427 1.4295 30.8341 0.820807C30.2254 0.212119 29.6905 0 28.7959 0C27.7445 0 26.813 0.590243 26.2873 1.5955C26.1306 1.89062 26.0752 2.18574 26.0476 2.87744L26.0107 3.78125H21.9712V2.96966C21.9712 2.32408 21.9251 2.07507 21.7498 1.69695C21.2518 0.627133 20.3111 0 19.1952 0C18.3098 0 17.7749 0.212119 17.1662 0.820807C16.5575 1.4295 16.3731 1.89985 16.2809 3.01577L16.2255 3.78125H12.2875V3.04344C12.2875 1.77073 11.7895 0.86692 10.8027 0.322789C10.3969 0.101448 10.1755 0.0553353 9.56685 0.0276677C9.06883 0.00922255 8.69993 0.0461128 8.43248 0.147561ZM10.111 1.42027C10.277 1.49405 10.5352 1.70617 10.6828 1.89985L10.9502 2.24108L11.0056 6.46501L10.775 6.8708C10.2309 7.78383 8.96738 7.91295 8.29414 7.11059C7.88835 6.63101 7.84223 6.28978 7.87912 4.24237C7.90679 2.44398 7.91601 2.33331 8.11891 2.00129C8.51548 1.37416 9.39162 1.11593 10.111 1.42027ZM19.9514 1.50328C20.1175 1.61395 20.3572 1.85373 20.4771 2.02896C20.6892 2.34253 20.6892 2.37942 20.6616 4.51905C20.6339 6.64024 20.6247 6.69557 20.4126 6.99992C20.1636 7.35037 19.5733 7.6455 19.1306 7.65472C18.4851 7.65472 17.8118 7.11981 17.6366 6.46501C17.5259 6.02233 17.5259 2.9051 17.6458 2.44398C17.904 1.45716 19.1399 0.949923 19.9514 1.50328ZM29.6351 1.50328C30.0778 1.7984 30.3453 2.24108 30.4098 2.79443C30.4375 3.06189 30.4467 4.00259 30.4283 4.88795C30.4006 6.64024 30.336 6.88925 29.8472 7.27659C29.0725 7.88528 27.9382 7.67316 27.4955 6.82469C27.3387 6.53879 27.3203 6.27134 27.3203 4.4176C27.3203 2.39786 27.3295 2.32408 27.5324 2.01974C27.8644 1.53094 28.2886 1.29116 28.842 1.29116C29.1924 1.29116 29.4046 1.34649 29.6351 1.50328ZM39.3004 1.47561C39.5033 1.57706 39.7615 1.80762 39.8722 2.00129C40.0843 2.33331 40.0935 2.44398 40.1212 4.27926C40.1581 6.46501 40.0935 6.7878 39.5401 7.27659C38.8116 7.91295 37.6219 7.68239 37.1792 6.80624C37.0039 6.46501 36.9947 6.299 37.0224 4.3346C37.0501 2.36097 37.0593 2.21341 37.2437 1.9644C37.7417 1.30038 38.5718 1.09748 39.3004 1.47561ZM6.58797 5.9301C6.66175 7.28582 7.15976 8.12507 8.21113 8.64153C8.65382 8.86287 8.84749 8.89976 9.47462 8.89054C10.3877 8.89054 10.9502 8.63231 11.5774 7.93139C12.1031 7.35037 12.2875 6.7878 12.2875 5.79176V5.0724H16.2255L16.2809 5.92088C16.3362 6.61257 16.4008 6.88925 16.6313 7.3596C17.4798 9.09344 19.7947 9.46234 21.1688 8.08818C21.713 7.54405 21.9066 7.01836 21.9712 5.99466L22.0173 5.11852H25.983L26.0291 5.99466C26.1121 7.3596 26.5917 8.15273 27.6431 8.6692C28.3347 9.01043 29.3861 8.99199 30.1055 8.64153C31.1107 8.15274 31.6364 7.26737 31.7194 5.90243L31.7748 5.0724H35.7128V5.79176C35.7128 6.7878 35.8972 7.35037 36.4229 7.93139C37.0501 8.63231 37.6126 8.89054 38.5257 8.89054C39.3834 8.89976 39.8906 8.71531 40.4901 8.16196C41.0895 7.62705 41.357 6.98147 41.4123 5.93932L41.4584 5.0724H42.8141C44.3912 5.0724 44.8984 5.18307 45.4702 5.68109C46.2449 6.34512 46.2726 6.43734 46.3003 9.28711L46.3279 11.8049H1.67235L1.70001 9.28711C1.72768 6.91691 1.7369 6.76013 1.93058 6.40967C2.2257 5.86554 2.71449 5.44131 3.26785 5.24763C3.65519 5.10929 4.04254 5.08163 5.14925 5.0724H6.54185L6.58797 5.9301ZM46.3187 27.8798C46.3187 44.1391 46.3556 43.1062 45.7654 43.8256C45.6086 44.01 45.2766 44.2682 45.0091 44.3974L44.5295 44.6371H3.47074L2.99117 44.3974C2.72372 44.2682 2.3917 44.01 2.23492 43.8256C1.64468 43.1062 1.68157 44.1391 1.68157 27.8798V13.096H46.3187V27.8798Z"/>
<path d="M23.0779 16.1948C22.0634 16.3055 21.2795 16.453 20.5786 16.6467C15.9396 17.9563 12.4535 21.7468 11.4851 26.5333C11.2546 27.6676 11.2546 30.1762 11.4851 31.2552C12.3705 35.4146 14.9067 38.6609 18.6511 40.4317C21.4086 41.732 24.8025 41.9626 27.7814 41.0403C30.7695 40.1181 33.4902 37.9323 35.0672 35.184C36.7918 32.1682 37.1884 28.3409 36.1186 25.0208C35.7773 23.951 34.8735 22.1894 34.2003 21.2949C33.4625 20.3265 32.1068 19.0169 31.1937 18.399C29.6997 17.4029 27.9013 16.6559 26.2781 16.3792C25.4665 16.2317 23.6312 16.1302 23.0779 16.1948ZM26.3519 17.7165C27.4033 17.9286 28.7866 18.4543 29.6997 18.9892C31.6641 20.1328 33.4533 22.088 34.3755 24.0985C35.8235 27.2434 35.7681 30.8955 34.2372 33.9666C32.5956 37.2407 29.5152 39.5371 25.9369 40.155C20.6339 41.068 15.4047 38.1352 13.3942 33.1274C12.2322 30.2223 12.3152 26.9575 13.6248 24.0985C14.5655 22.0603 16.3639 20.0959 18.3559 18.9616C20.763 17.5874 23.5575 17.1539 26.3519 17.7165Z"/>
<path d="M23.7511 19.3673C23.3453 19.5334 23.2347 20.0775 23.539 20.3818C23.9171 20.76 24.6457 20.4925 24.6457 19.976C24.6457 19.5426 24.1569 19.2106 23.7511 19.3673Z"/>
<path d="M19.2874 20.5847C19.1399 20.6308 18.9923 20.7876 18.9277 20.9444C18.8263 21.1842 18.8355 21.258 18.9923 21.4701C19.3704 21.9865 20.1267 21.7744 20.1267 21.1657C20.1267 20.7138 19.7209 20.4372 19.2874 20.5847Z"/>
<path d="M28.2886 20.5663C27.6154 20.8153 27.7629 21.7652 28.4731 21.7652C28.8328 21.7652 29.0725 21.5254 29.0725 21.1473C29.0725 20.7323 28.6575 20.4279 28.2886 20.5663Z"/>
<path d="M23.5851 22.5491L23.3546 22.7705V25.943C23.3546 28.3317 23.3822 29.1433 23.4745 29.2631C23.6589 29.5122 27.7537 31.8178 28.0027 31.8178C28.4915 31.8178 28.7682 31.2552 28.4731 30.8402C28.4085 30.7295 27.5139 30.1762 26.4995 29.5952L24.6549 28.5438L24.6457 25.6571V22.7705L24.4152 22.5491C24.1293 22.254 23.871 22.254 23.5851 22.5491Z"/>
<path d="M15.8105 24.0063C15.5338 24.3014 15.5523 24.6611 15.8474 24.8917C16.1702 25.1407 16.3915 25.1314 16.6682 24.8548C16.9541 24.5781 16.9633 24.2553 16.6867 23.9971C16.41 23.7388 16.0595 23.7388 15.8105 24.0063Z"/>
<path d="M31.286 23.9786C30.9078 24.3567 31.2214 25.0853 31.7655 25.0853C31.9869 25.0853 32.3927 24.6795 32.3927 24.4582C32.3927 23.9141 31.6641 23.6005 31.286 23.9786Z"/>
<path d="M14.8053 28.3132C14.3995 28.4792 14.2888 29.0234 14.5931 29.3277C14.9713 29.7058 15.6998 29.4384 15.6998 28.9219C15.6998 28.4885 15.2111 28.1564 14.8053 28.3132Z"/>
<path d="M32.697 28.3132C32.2912 28.4792 32.1805 29.0234 32.4849 29.3277C32.863 29.7058 33.5916 29.4384 33.5916 28.9219C33.5916 28.4885 33.1028 28.1564 32.697 28.3132Z"/>
<path d="M15.7921 32.9245C15.6906 33.0259 15.6076 33.2104 15.6076 33.3395C15.6076 33.6254 15.9857 34.0312 16.2532 34.0312C16.5114 34.0312 16.8988 33.6346 16.8988 33.358C16.8988 33.0721 16.5391 32.74 16.2255 32.74C16.0872 32.74 15.8935 32.8231 15.7921 32.9245Z"/>
<path d="M31.286 32.9245C30.9078 33.3026 31.2214 34.0312 31.7655 34.0312C31.9869 34.0312 32.3927 33.6254 32.3927 33.4041C32.3927 32.8599 31.6641 32.5464 31.286 32.9245Z"/>
<path d="M19.2413 36.0786C18.6418 36.3645 18.8632 37.2591 19.5272 37.2591C20.1175 37.2591 20.3572 36.5305 19.8869 36.1616C19.6102 35.9495 19.5272 35.9403 19.2413 36.0786Z"/>
<path d="M28.1872 36.0786C27.5877 36.3645 27.8091 37.2591 28.4731 37.2591C29.0633 37.2591 29.3031 36.5305 28.8328 36.1616C28.5561 35.9495 28.4731 35.9403 28.1872 36.0786Z"/>
<path d="M23.7511 37.2591C23.3453 37.4251 23.2347 37.9692 23.539 38.2736C23.9171 38.6517 24.6457 38.3842 24.6457 37.8678C24.6457 37.4343 24.1569 37.1023 23.7511 37.2591Z"/>
</mask>
<path d="M8.43248 0.147561C8.22036 0.230564 7.82379 0.498018 7.54711 0.747027C6.89231 1.33727 6.65252 1.90907 6.58797 2.96966L6.54185 3.78125H5.23225C3.68286 3.78125 3.12029 3.87347 2.36404 4.24237C1.66312 4.58361 1.10977 5.17385 0.731645 5.97621L0.436523 6.59412V43.2077L0.731645 43.8256C1.10055 44.6095 1.70924 45.2182 2.49315 45.5871L3.11106 45.8822L23.8618 45.9099C46.9551 45.9283 44.9907 45.9836 46.0144 45.3104C46.7983 44.7939 47.3055 44.0285 47.5084 43.0693C47.5914 42.6912 47.6099 38.0984 47.5914 24.5781L47.5638 6.59412L47.2686 5.97621C46.8905 5.17385 46.3372 4.58361 45.6362 4.24237C44.88 3.87347 44.3174 3.78125 42.768 3.78125H41.4584L41.4123 2.96966C41.3478 1.90907 41.108 1.33727 40.4532 0.747027C39.8076 0.156783 39.245 -0.0368902 38.3504 0.0184451C36.7365 0.119893 35.7128 1.30038 35.7128 3.04344V3.78125H31.7748L31.7194 3.01577C31.6364 1.91829 31.4427 1.4295 30.8341 0.820807C30.2254 0.212119 29.6905 0 28.7959 0C27.7445 0 26.813 0.590243 26.2873 1.5955C26.1306 1.89062 26.0752 2.18574 26.0476 2.87744L26.0107 3.78125H21.9712V2.96966C21.9712 2.32408 21.9251 2.07507 21.7498 1.69695C21.2518 0.627133 20.3111 0 19.1952 0C18.3098 0 17.7749 0.212119 17.1662 0.820807C16.5575 1.4295 16.3731 1.89985 16.2809 3.01577L16.2255 3.78125H12.2875V3.04344C12.2875 1.77073 11.7895 0.86692 10.8027 0.322789C10.3969 0.101448 10.1755 0.0553353 9.56685 0.0276677C9.06883 0.00922255 8.69993 0.0461128 8.43248 0.147561ZM10.111 1.42027C10.277 1.49405 10.5352 1.70617 10.6828 1.89985L10.9502 2.24108L11.0056 6.46501L10.775 6.8708C10.2309 7.78383 8.96738 7.91295 8.29414 7.11059C7.88835 6.63101 7.84223 6.28978 7.87912 4.24237C7.90679 2.44398 7.91601 2.33331 8.11891 2.00129C8.51548 1.37416 9.39162 1.11593 10.111 1.42027ZM19.9514 1.50328C20.1175 1.61395 20.3572 1.85373 20.4771 2.02896C20.6892 2.34253 20.6892 2.37942 20.6616 4.51905C20.6339 6.64024 20.6247 6.69557 20.4126 6.99992C20.1636 7.35037 19.5733 7.6455 19.1306 7.65472C18.4851 7.65472 17.8118 7.11981 17.6366 6.46501C17.5259 6.02233 17.5259 2.9051 17.6458 2.44398C17.904 1.45716 19.1399 0.949923 19.9514 1.50328ZM29.6351 1.50328C30.0778 1.7984 30.3453 2.24108 30.4098 2.79443C30.4375 3.06189 30.4467 4.00259 30.4283 4.88795C30.4006 6.64024 30.336 6.88925 29.8472 7.27659C29.0725 7.88528 27.9382 7.67316 27.4955 6.82469C27.3387 6.53879 27.3203 6.27134 27.3203 4.4176C27.3203 2.39786 27.3295 2.32408 27.5324 2.01974C27.8644 1.53094 28.2886 1.29116 28.842 1.29116C29.1924 1.29116 29.4046 1.34649 29.6351 1.50328ZM39.3004 1.47561C39.5033 1.57706 39.7615 1.80762 39.8722 2.00129C40.0843 2.33331 40.0935 2.44398 40.1212 4.27926C40.1581 6.46501 40.0935 6.7878 39.5401 7.27659C38.8116 7.91295 37.6219 7.68239 37.1792 6.80624C37.0039 6.46501 36.9947 6.299 37.0224 4.3346C37.0501 2.36097 37.0593 2.21341 37.2437 1.9644C37.7417 1.30038 38.5718 1.09748 39.3004 1.47561ZM6.58797 5.9301C6.66175 7.28582 7.15976 8.12507 8.21113 8.64153C8.65382 8.86287 8.84749 8.89976 9.47462 8.89054C10.3877 8.89054 10.9502 8.63231 11.5774 7.93139C12.1031 7.35037 12.2875 6.7878 12.2875 5.79176V5.0724H16.2255L16.2809 5.92088C16.3362 6.61257 16.4008 6.88925 16.6313 7.3596C17.4798 9.09344 19.7947 9.46234 21.1688 8.08818C21.713 7.54405 21.9066 7.01836 21.9712 5.99466L22.0173 5.11852H25.983L26.0291 5.99466C26.1121 7.3596 26.5917 8.15273 27.6431 8.6692C28.3347 9.01043 29.3861 8.99199 30.1055 8.64153C31.1107 8.15274 31.6364 7.26737 31.7194 5.90243L31.7748 5.0724H35.7128V5.79176C35.7128 6.7878 35.8972 7.35037 36.4229 7.93139C37.0501 8.63231 37.6126 8.89054 38.5257 8.89054C39.3834 8.89976 39.8906 8.71531 40.4901 8.16196C41.0895 7.62705 41.357 6.98147 41.4123 5.93932L41.4584 5.0724H42.8141C44.3912 5.0724 44.8984 5.18307 45.4702 5.68109C46.2449 6.34512 46.2726 6.43734 46.3003 9.28711L46.3279 11.8049H1.67235L1.70001 9.28711C1.72768 6.91691 1.7369 6.76013 1.93058 6.40967C2.2257 5.86554 2.71449 5.44131 3.26785 5.24763C3.65519 5.10929 4.04254 5.08163 5.14925 5.0724H6.54185L6.58797 5.9301ZM46.3187 27.8798C46.3187 44.1391 46.3556 43.1062 45.7654 43.8256C45.6086 44.01 45.2766 44.2682 45.0091 44.3974L44.5295 44.6371H3.47074L2.99117 44.3974C2.72372 44.2682 2.3917 44.01 2.23492 43.8256C1.64468 43.1062 1.68157 44.1391 1.68157 27.8798V13.096H46.3187V27.8798Z" stroke="#A45BFF" stroke-width="2" mask="url(#path-1-inside-1_641_482)"/>
<path d="M23.0779 16.1948C22.0634 16.3055 21.2795 16.453 20.5786 16.6467C15.9396 17.9563 12.4535 21.7468 11.4851 26.5333C11.2546 27.6676 11.2546 30.1762 11.4851 31.2552C12.3705 35.4146 14.9067 38.6609 18.6511 40.4317C21.4086 41.732 24.8025 41.9626 27.7814 41.0403C30.7695 40.1181 33.4902 37.9323 35.0672 35.184C36.7918 32.1682 37.1884 28.3409 36.1186 25.0208C35.7773 23.951 34.8735 22.1894 34.2003 21.2949C33.4625 20.3265 32.1068 19.0169 31.1937 18.399C29.6997 17.4029 27.9013 16.6559 26.2781 16.3792C25.4665 16.2317 23.6312 16.1302 23.0779 16.1948ZM26.3519 17.7165C27.4033 17.9286 28.7866 18.4543 29.6997 18.9892C31.6641 20.1328 33.4533 22.088 34.3755 24.0985C35.8235 27.2434 35.7681 30.8955 34.2372 33.9666C32.5956 37.2407 29.5152 39.5371 25.9369 40.155C20.6339 41.068 15.4047 38.1352 13.3942 33.1274C12.2322 30.2223 12.3152 26.9575 13.6248 24.0985C14.5655 22.0603 16.3639 20.0959 18.3559 18.9616C20.763 17.5874 23.5575 17.1539 26.3519 17.7165Z" stroke="#A45BFF" stroke-width="2" mask="url(#path-1-inside-1_641_482)"/>
<path d="M23.7511 19.3673C23.3453 19.5334 23.2347 20.0775 23.539 20.3818C23.9171 20.76 24.6457 20.4925 24.6457 19.976C24.6457 19.5426 24.1569 19.2106 23.7511 19.3673Z" stroke="#A45BFF" stroke-width="2" mask="url(#path-1-inside-1_641_482)"/>
<path d="M19.2874 20.5847C19.1399 20.6308 18.9923 20.7876 18.9277 20.9444C18.8263 21.1842 18.8355 21.258 18.9923 21.4701C19.3704 21.9865 20.1267 21.7744 20.1267 21.1657C20.1267 20.7138 19.7209 20.4372 19.2874 20.5847Z" stroke="#A45BFF" stroke-width="2" mask="url(#path-1-inside-1_641_482)"/>
<path d="M28.2886 20.5663C27.6154 20.8153 27.7629 21.7652 28.4731 21.7652C28.8328 21.7652 29.0725 21.5254 29.0725 21.1473C29.0725 20.7323 28.6575 20.4279 28.2886 20.5663Z" stroke="#A45BFF" stroke-width="2" mask="url(#path-1-inside-1_641_482)"/>
<path d="M23.5851 22.5491L23.3546 22.7705V25.943C23.3546 28.3317 23.3822 29.1433 23.4745 29.2631C23.6589 29.5122 27.7537 31.8178 28.0027 31.8178C28.4915 31.8178 28.7682 31.2552 28.4731 30.8402C28.4085 30.7295 27.5139 30.1762 26.4995 29.5952L24.6549 28.5438L24.6457 25.6571V22.7705L24.4152 22.5491C24.1293 22.254 23.871 22.254 23.5851 22.5491Z" stroke="#A45BFF" stroke-width="2" mask="url(#path-1-inside-1_641_482)"/>
<path d="M15.8105 24.0063C15.5338 24.3014 15.5523 24.6611 15.8474 24.8917C16.1702 25.1407 16.3915 25.1314 16.6682 24.8548C16.9541 24.5781 16.9633 24.2553 16.6867 23.9971C16.41 23.7388 16.0595 23.7388 15.8105 24.0063Z" stroke="#A45BFF" stroke-width="2" mask="url(#path-1-inside-1_641_482)"/>
<path d="M31.286 23.9786C30.9078 24.3567 31.2214 25.0853 31.7655 25.0853C31.9869 25.0853 32.3927 24.6795 32.3927 24.4582C32.3927 23.9141 31.6641 23.6005 31.286 23.9786Z" stroke="#A45BFF" stroke-width="2" mask="url(#path-1-inside-1_641_482)"/>
<path d="M14.8053 28.3132C14.3995 28.4792 14.2888 29.0234 14.5931 29.3277C14.9713 29.7058 15.6998 29.4384 15.6998 28.9219C15.6998 28.4885 15.2111 28.1564 14.8053 28.3132Z" stroke="#A45BFF" stroke-width="2" mask="url(#path-1-inside-1_641_482)"/>
<path d="M32.697 28.3132C32.2912 28.4792 32.1805 29.0234 32.4849 29.3277C32.863 29.7058 33.5916 29.4384 33.5916 28.9219C33.5916 28.4885 33.1028 28.1564 32.697 28.3132Z" stroke="#A45BFF" stroke-width="2" mask="url(#path-1-inside-1_641_482)"/>
<path d="M15.7921 32.9245C15.6906 33.0259 15.6076 33.2104 15.6076 33.3395C15.6076 33.6254 15.9857 34.0312 16.2532 34.0312C16.5114 34.0312 16.8988 33.6346 16.8988 33.358C16.8988 33.0721 16.5391 32.74 16.2255 32.74C16.0872 32.74 15.8935 32.8231 15.7921 32.9245Z" stroke="#A45BFF" stroke-width="2" mask="url(#path-1-inside-1_641_482)"/>
<path d="M31.286 32.9245C30.9078 33.3026 31.2214 34.0312 31.7655 34.0312C31.9869 34.0312 32.3927 33.6254 32.3927 33.4041C32.3927 32.8599 31.6641 32.5464 31.286 32.9245Z" stroke="#A45BFF" stroke-width="2" mask="url(#path-1-inside-1_641_482)"/>
<path d="M19.2413 36.0786C18.6418 36.3645 18.8632 37.2591 19.5272 37.2591C20.1175 37.2591 20.3572 36.5305 19.8869 36.1616C19.6102 35.9495 19.5272 35.9403 19.2413 36.0786Z" stroke="#A45BFF" stroke-width="2" mask="url(#path-1-inside-1_641_482)"/>
<path d="M28.1872 36.0786C27.5877 36.3645 27.8091 37.2591 28.4731 37.2591C29.0633 37.2591 29.3031 36.5305 28.8328 36.1616C28.5561 35.9495 28.4731 35.9403 28.1872 36.0786Z" stroke="#A45BFF" stroke-width="2" mask="url(#path-1-inside-1_641_482)"/>
<path d="M23.7511 37.2591C23.3453 37.4251 23.2347 37.9692 23.539 38.2736C23.9171 38.6517 24.6457 38.3842 24.6457 37.8678C24.6457 37.4343 24.1569 37.1023 23.7511 37.2591Z" stroke="#A45BFF" stroke-width="2" mask="url(#path-1-inside-1_641_482)"/>
</svg>
