<svg width="45" height="45" viewBox="0 0 45 45" fill="none" xmlns="http://www.w3.org/2000/svg">
<g clip-path="url(#clip0_1148_976)">
<path d="M20.3467 0.0498047C15.9785 0.47168 11.6455 2.25586 8.25293 5.01562C7.25098 5.82422 5.66895 7.42383 4.87793 8.41699C2.86523 10.9395 1.21289 14.3496 0.527344 17.4082C0.0966797 19.3242 0 20.2646 0 22.4619C0 24.6592 0.0966797 25.5996 0.527344 27.5156C1.22168 30.6357 2.91797 34.0986 5.00098 36.6562C5.80957 37.6582 7.40918 39.2402 8.40234 40.0312C10.9248 42.0439 14.335 43.6963 17.3936 44.3818C19.3096 44.8125 20.25 44.9092 22.4473 44.9092C24.6445 44.9092 25.585 44.8125 27.501 44.3818C29.7949 43.8721 32.8008 42.5889 34.7783 41.2793C38.1973 39.0029 40.8252 36.0146 42.627 32.3496C43.7256 30.1084 44.3496 28.0957 44.7451 25.5381C44.9561 24.123 44.9561 20.8008 44.7451 19.3857C44.3496 16.8281 43.7256 14.8154 42.627 12.5742C41.4492 10.1836 40.1396 8.35547 38.25 6.49219C36.3955 4.65527 34.6992 3.45117 32.335 2.29102C30.1201 1.20117 28.0635 0.55957 25.6113 0.181641C24.5039 0.0146484 21.498 -0.0556641 20.3467 0.0498047ZM25.5674 3.0293C27.6768 3.38086 29.25 3.89062 31.1924 4.83984C36.2021 7.30078 40.0781 12.0293 41.4756 17.417C41.9502 19.2363 42.082 20.3262 42.082 22.4619C42.082 24.5977 41.9502 25.6875 41.4756 27.5068C40.0781 32.8945 36.2021 37.623 31.1924 40.084C29.25 41.0332 27.7031 41.5342 25.5234 41.9033C23.9414 42.1758 20.9531 42.1758 19.3711 41.9033C17.1914 41.5342 15.6445 41.0332 13.7021 40.084C8.69238 37.623 4.81641 32.8945 3.41895 27.5068C2.94434 25.6875 2.8125 24.5977 2.8125 22.4619C2.8125 20.3262 2.94434 19.2363 3.41895 17.417C3.90234 15.5537 4.91309 13.2861 5.96777 11.6953C9.3252 6.65039 14.5107 3.50391 20.5576 2.8623C21.6914 2.73926 24.3721 2.82715 25.5674 3.0293Z" fill="white"/>
<path d="M21.6121 13.0049C21.2517 13.1719 13.0779 21.3897 12.9548 21.6973C12.8318 22.0489 12.8494 22.9454 12.99 23.2794C13.1482 23.6397 21.3572 31.8311 21.6824 31.9542C22.8425 32.3848 23.9588 31.2159 23.4666 30.0821C23.3963 29.9239 22.0252 28.4825 20.3904 26.8565L17.4373 23.9122L25.1189 23.8682C32.7127 23.8243 32.8093 23.8243 33.0466 23.6397C33.5125 23.2969 33.6531 23.0157 33.6531 22.462C33.6531 21.9083 33.5125 21.627 33.0466 21.2842C32.8093 21.0997 32.7127 21.0997 25.1189 21.0557L17.4373 21.0118L20.3904 18.0674C22.0252 16.4415 23.3963 15.0001 23.4666 14.8419C23.9763 13.6729 22.7634 12.4864 21.6121 13.0049Z" fill="white"/>
</g>
<defs>
<clipPath id="clip0_1148_976">
<rect width="45" height="45" fill="white"/>
</clipPath>
</defs>
</svg>
