<svg width="15" height="18" viewBox="0 0 15 18" fill="none" xmlns="http://www.w3.org/2000/svg">
<path d="M4.43124 0.0557943C3.88407 0.172214 3.25928 0.587445 2.95271 1.0376L2.82076 1.23163L2.23866 1.23552C1.84284 1.23552 1.57895 1.25492 1.42373 1.29373C0.756252 1.46835 0.240124 1.98836 0.0654942 2.65972C-0.023761 2.99734 -0.0198803 11.8957 0.0654942 12.2372C0.240124 12.9047 0.760133 13.4208 1.43149 13.5954C1.60224 13.642 1.89717 13.6536 2.6927 13.6536H3.73272V15.0041C3.73272 16.4632 3.74824 16.5991 3.95004 16.9988C4.08974 17.2743 4.42736 17.6158 4.699 17.7633C5.1608 18.0077 5.0211 18 8.97549 18C11.203 18 12.6505 17.9844 12.7785 17.9612C13.1278 17.8952 13.5159 17.6818 13.7603 17.414C13.8806 17.2859 14.0242 17.0919 14.0747 16.9871C14.2881 16.568 14.2881 16.6146 14.2881 12.6408C14.2881 10.3434 14.2726 8.89206 14.2493 8.76012C14.1756 8.37205 14.0048 8.11593 12.9221 6.76546C12.0451 5.67111 11.8239 5.41887 11.6299 5.29081C11.2767 5.05409 11.0516 4.992 10.4579 4.96871L9.94178 4.95319V3.91705C9.94178 2.79554 9.91849 2.62091 9.72446 2.23673C9.58476 1.9612 9.24714 1.6197 8.97549 1.47224C8.61847 1.28208 8.36623 1.23552 7.7104 1.23552L7.1283 1.23163L6.99636 1.0376C6.6859 0.579684 6.065 0.168334 5.49842 0.0519137C5.16468 -0.0179382 4.76498 -0.0179382 4.43124 0.0557943ZM5.55663 1.39462C5.90977 1.58089 6.13873 1.90687 6.19694 2.29494L6.2241 2.47733H3.73272V2.38031C3.73272 2.32986 3.75988 2.2018 3.79481 2.1009C4.05093 1.35194 4.86587 1.02596 5.55663 1.39462ZM2.49479 2.91584C2.51031 3.38928 2.54912 3.49794 2.75091 3.62988C2.84793 3.69586 3.02256 3.69974 4.89692 3.71138L6.93427 3.72302L7.10501 3.63376C7.39218 3.4863 7.43487 3.39316 7.45039 2.89644L7.46592 2.46957L7.88503 2.48509C8.33906 2.49673 8.42832 2.53166 8.59907 2.7645C8.67668 2.86539 8.68056 2.93137 8.6922 3.91705L8.70385 4.96095H7.04292C5.2423 4.96095 5.14528 4.96871 4.73393 5.17827C4.4584 5.31797 4.1169 5.65559 3.96944 5.92724C3.72884 6.38127 3.73272 6.31918 3.73272 9.51297V12.4157L2.68882 12.4041C1.70313 12.3924 1.63716 12.3885 1.53626 12.3109C1.47805 12.2682 1.39268 12.1829 1.34999 12.1247C1.2685 12.0199 1.2685 11.9927 1.25686 7.54935C1.25298 5.08901 1.25686 3.0245 1.2685 2.95465C1.29566 2.79942 1.45865 2.60151 1.61776 2.53166C1.68761 2.50061 1.88552 2.48121 2.10672 2.47733H2.48315L2.49479 2.91584ZM10.8576 6.26873C10.9624 6.31918 11.2379 6.64128 11.9597 7.54159C12.4875 8.2013 12.9493 8.79892 12.9842 8.86878C13.0385 8.98132 13.0463 9.34222 13.0463 12.6253C13.0463 16.6728 13.0618 16.4205 12.7824 16.634L12.6466 16.7388H9.00654C5.39364 16.7388 5.36648 16.7388 5.2617 16.6573C5.20349 16.6146 5.11812 16.5292 5.07543 16.471C4.99393 16.3662 4.99393 16.3429 4.98229 11.5852C4.97841 8.95415 4.98229 6.74994 4.99393 6.68008C5.0211 6.52486 5.18409 6.32694 5.34319 6.25709C5.43633 6.2144 5.99126 6.20664 8.08682 6.20276C10.4967 6.20276 10.7257 6.20664 10.8576 6.26873Z" fill="#A45BFF"/>
<path d="M6.585 10.6034C6.325 10.716 6.17754 11.0148 6.23186 11.3058C6.26679 11.4882 6.46082 11.7017 6.63545 11.7521C6.73247 11.7832 7.53965 11.7909 9.09579 11.7832C11.366 11.7715 11.4125 11.7715 11.5173 11.69C11.723 11.5387 11.7851 11.4145 11.7851 11.17C11.7851 10.9255 11.723 10.8013 11.5173 10.65C11.4125 10.5685 11.366 10.5685 9.05699 10.5607C7.15934 10.553 6.67814 10.5607 6.585 10.6034Z" fill="#A45BFF"/>
<path d="M6.585 13.0871C6.325 13.1996 6.17754 13.4984 6.23186 13.7895C6.26679 13.9718 6.46082 14.1853 6.63545 14.2357C6.73247 14.2668 7.53965 14.2745 9.09579 14.2668C11.366 14.2551 11.4125 14.2551 11.5173 14.1736C11.723 14.0223 11.7851 13.8981 11.7851 13.6536C11.7851 13.4091 11.723 13.285 11.5173 13.1336C11.4125 13.0521 11.366 13.0521 9.05699 13.0444C7.15934 13.0366 6.67814 13.0444 6.585 13.0871Z" fill="#A45BFF"/>
</svg>
