<svg width="20" height="20" viewBox="0 0 20 20" fill="none" xmlns="http://www.w3.org/2000/svg">
<path d="M9.04826 0.043026C5.97428 0.336317 3.17798 2.0726 1.51193 4.72003C-0.392686 7.74679 -0.506102 11.6691 1.21861 14.8014C1.98515 16.1975 3.12714 17.4449 4.43338 18.3209C5.73572 19.193 7.13583 19.717 8.7745 19.9516C9.23208 20.0142 10.7769 20.0181 11.2384 19.9516C13.7062 19.6075 15.7437 18.5438 17.4059 16.741C18.7708 15.2629 19.6468 13.3702 19.948 11.2428C20.0262 10.6993 20.0145 9.27582 19.9245 8.66186C19.8424 8.05573 19.6116 7.12502 19.4122 6.58536C19.2362 6.10437 18.7591 5.12282 18.5088 4.73177C17.7422 3.52341 16.6706 2.42846 15.5013 1.65026C14.9811 1.30222 13.9721 0.79776 13.3894 0.590502C11.9932 0.0977745 10.4875 -0.0938435 9.04826 0.043026ZM11.1289 1.07541C12.5016 1.25529 13.8587 1.75584 14.9537 2.4832C16.9522 3.81279 18.3641 5.8932 18.8216 8.18086C18.9781 8.95515 19.0133 9.40486 18.9898 10.2652C18.9546 11.6691 18.6965 12.7249 18.0825 13.9802C16.8232 16.5533 14.3749 18.3874 11.5317 18.8879C10.9138 18.9974 9.66619 19.0365 9.06782 18.97C7.28053 18.7667 5.5871 18.0511 4.25348 16.9366C2.17679 15.2042 1.01133 12.7132 1.01133 10.0188C1.01133 8.57192 1.30465 7.30099 1.9304 6.0418C2.42317 5.04461 2.97461 4.28596 3.76853 3.52732C5.17646 2.17427 6.90117 1.34133 8.85272 1.07932C9.40025 1.00502 10.5618 1.00502 11.1289 1.07541Z" fill="white"/>
<path d="M9.76419 4.04353C9.37701 4.14911 9.11889 4.41894 9.03285 4.81782C8.93899 5.23233 9.158 5.68205 9.54909 5.88148C10.4799 6.35466 11.399 5.30272 10.8162 4.43067C10.6011 4.11001 10.1396 3.94185 9.76419 4.04353Z" fill="white"/>
<path d="M8.77061 7.58264C8.59462 7.68823 8.52031 7.81337 8.52031 8.00107C8.52031 8.20833 8.65328 8.41168 8.83318 8.47425C8.90749 8.50162 9.08739 8.52117 9.23601 8.52117L9.49804 8.52509V11.5167V14.5082H8.97006C8.36387 14.5082 8.21526 14.5512 8.09011 14.7507C7.93367 15.0088 8.03927 15.3568 8.30521 15.4702C8.50466 15.5523 11.5082 15.5523 11.7077 15.4702C11.9736 15.3568 12.0792 15.0088 11.9228 14.7507C11.7977 14.5512 11.649 14.5082 11.0428 14.5082H10.5149V11.2116C10.5149 8.09102 10.511 7.91113 10.4445 7.78208C10.3193 7.54745 10.1903 7.50834 9.49804 7.50834C8.97006 7.50834 8.8762 7.52008 8.77061 7.58264Z" fill="white"/>
</svg>
